<svg xmlns="http://www.w3.org/2000/svg" width="800" height="261.6" viewBox="0 0 800 261.6"><g style="display:inline"><path d="M53.4 261.6q-1.4 0-3.8-.3-2.4 0-5.5-.3-16.2.6-31-11Q0 239 0 225.4q0-11.4 9.6-23 4.9.6 5.5 3 1 2.1 0 9.3v1.4q.4.7.7 1.7 13.5 6.2 32 6.2 13.8 0 27-3 13-3.5 22.3-9 9.6-5.5 12.4-12.4 1.7-4.8-4.5-14.1-6.2-9.7-16.9-21.4-10.3-11.7-22-22.7-8.3-7.6-15.8-14.8-7.3-7.2-14.2-14.5-7.5-8.2-12-18.9-4.1-11-4.1-22.7 0-15.9 7.9-30 8.2-14 24.4-23Q83.3 0 115.7 0q2.4 0 5.5.3 3 0 7.2.4 3.8.3 6.6 1t4.4 1.4q8.6 3.4 8.6 9.6t-8.6 15.9q-1.7-.4-4.4-.4h-6.6q-30.3 0-60.2 17.6-7.3 4.5-12.4 11.3-3.8 4.5-3.8 9.7 0 9 10.3 17.9l13.1 14.5q8.3 9.2 19.6 23l8 8.3q11.3 12 19.2 21.7 8 9.3 13.8 18.6 5.8 9 10.3 20 2.8 7.5 2.8 13 0 14.8-11.4 27.2-13 14.5-30.3 21-17.2 6.9-38.9 8.6-2.7.4-6.5.7t-8.6.3m212.4-11q-7.3 0-15.5-1-8.3-1-16.2-5.9-7.6-5.1-13.4-16.5-5.9-11.7-8.7-32.7.4-3.4.4-8.6v-12q0-11-.7-22.4-.3-11.4-1-23-.7-2.2-2.4-3.2l-7-1.7q-8.2-1.7-10.3-3.8-2.4-2.7-3.4-5.8-.7-3.1-1.4-8.7 3.1-7.2 11.4-7.2l3.4.7h2.4q7.3 0 8.6-4.1 1.8-4.5 1.8-18.3l1-20.6q.3-13.5 2-40.7.4-14 12.8-14 2 0 3.5.3 1.7 0 3 .3 14.2 3.1 19 9 4.8 5.8 3.8 13-.7 7-1.8 14.5-10.3 60.6-6.5 62.3 0 2.8 4.8 4.5 4.5 1.4 13.8 1 8-1.7 13.8-2.7 6.2-1.4 10.3-1.7.7-.4 2-.4h3.5q4.1 0 5.5 1 3.1 1.8 3.1 11.4 0 3.8-1 6.9-.7 3-2 3.4-4.6 1.4-10 2.8-5.6 1-12.1 1.7-7.6 1.4-13.1 2.8-5.5 1-9.3 2t-7.6 5.2-4.1 7.6l-1 34.4q-.4 13.4 1 26.9 1 11.3 4.5 16.5 3.4 4.8 10.3 4.8 5.2 0 15.8-3.8 5.2-2.4 9.7-2.4 6.9 0 9.3 7.2 1 2.4 1 4.8 0 4.5-3.4 7.3-3.1 2.7-8.6 4.8-10.4 3.8-21 4.1m131.8-9.3q-15.5 0-30.3-5.8Q352.5 230 337 180l5.2-32q3.4-13.5 13-18.7 9.7-5.5 25.9-9 10.3-2 20.3-2 31.3 0 53.3 21.4 11.4 11.3 11.4 27.9t-11.7 34.7q-14.1 21.4-31.3 32-11 7-25.5 7m-7.6-27.9q2 1.4 7.6.7 5.8-.7 9.3-3.4 3.4-3.1 8.2-10 4.9-7.2 8.7-16.2 4-9 4-17.2 0-11-6.1-20-6.2-9.2-17.2-12.3-1-.4-4.2-.4-6.8 0-7.5 2-2.8 7-5.9 16l-6.2 18.8-1 12.1v7.6q.3 5.1 1.4 9 3.4 10.6 9 13.3m137.4 33.8q-9.7 0-17.3-8.3-7.5-8.2-7.5-18.2.3-18.3.3-45.5v-64q0-10 4.5-13.8 4.5-4.1 16.2-4.1 8.6 0 14.4 4.8 6.2 4.8 6.6 12 1 3.2.3 10.7l-4.1 40.7q1.7-1.8 5.1-10 3.8-8.3 11.4-20.7 16.2-15.5 36.5-18.6 20.3-3 44.8-2.7 4.8 0 5.8 2.7 1.4 2.4.4 5.5-1 2.8-3.8 3.8-20.7 7-36.5 15.9-15.5 9-26.9 23.4-26.8 34-31 70.2-1 9.6-5.8 13-4.8 3.2-13.4 3.2m147.6 9.3q-2.7-.4-6.2-2.8-3-2.4-3.8-4.8-3.7-15.8-3.7-29.6 0-41.7 1-83l3.4-112.2q.7-18.2 19-18.2 25.1 0 23.7 20l-3.4 35-1.7 14.2-1.8 18.5-.6 8q-1 6.5-1 10.3 0 2.7.6 3.4l10-9.6q5.5-6.2 9.6-9.6 9-8.3 18.3-8.3 7.5 0 11.3 5.8 2.1 3.5 2.1 8 0 3.7-1.4 5.1-5.1 7.6-18.6 23.8-5.1 5.5-5.1 10.7 0 4.8 4.8 10.6 2 2.4 4.8 6.2 3.1 3.5 6.9 8.3 14.8 19 26.2 30.6 11.7 11.4 26.8 19 1.7.6 2.8 3.4 1 2.4.7 3.8-.4 1.7-2.8 3.4-2.4 1.8-4.1 1.4-2.4-.7-4.8-1l-3.8-.7q-18-3.5-25.5-8.6-12.4-9-35.1-30l-14.1-13-6.2-6-7.3-7.1q-.7 2-.7 5.1v3.1l.7 3.5q.7 3.4 0 5.1l-1.7 33.4-1 23q-.7 11.5-5.5 17.3-4.5 5.9-12.8 4.5" aria-label="Stork" style="font-size:344.271px;font-family:Mansalva;-inkscape-font-specification:&quot;Mansalva, Normal&quot;;font-variant-ligatures:no-contextual;font-feature-settings:&quot;case&quot;;letter-spacing:-4.8413px;fill:#fff;stroke-width:32.2754"/></g></svg>